<svg xmlns="http://www.w3.org/2000/svg" viewBox="0 0 1800 430">
<defs>
<linearGradient id="sky" x1="0" y1="0" x2="1" y2="1">
<stop offset="0" stop-color="#ffe5d4"/><stop offset=".44" stop-color="#e7d7ff"/><stop offset="1" stop-color="#f4b56b"/>
</linearGradient>
<linearGradient id="m1" x1="0" y1="0" x2="0" y2="1">
<stop offset="0" stop-color="#7357d9"/><stop offset="1" stop-color="#372a72"/>
</linearGradient>
<linearGradient id="grass" x1="0" y1="0" x2="0" y2="1">
<stop offset="0" stop-color="#5b765a"/><stop offset="1" stop-color="#293d32"/>
</linearGradient>
</defs>
<rect width="1800" height="430" fill="url(#sky)"/>
<circle cx="310" cy="152" r="70" fill="#ffd28a" opacity=".9"/>
<path d="M0 270 C170 160 310 240 470 130 C650 5 790 220 990 105 C1160 0 1320 180 1500 85 C1650 5 1730 60 1800 30 L1800 430 L0 430 Z" fill="url(#m1)" opacity=".56"/>
<path d="M0 330 C280 230 470 320 720 225 C980 130 1130 290 1380 195 C1545 130 1690 175 1800 130 L1800 430 L0 430 Z" fill="#536978" opacity=".55"/>
<path d="M0 380 C270 342 520 350 760 315 C1010 278 1200 350 1480 305 C1640 280 1730 287 1800 270 L1800 430 L0 430 Z" fill="#ebe8f3" opacity=".72"/>
<g transform="translate(1370 225) scale(.9)">
<path d="M70 100 L118 55 H305 L358 100 Z" fill="#2d3042"/>
<rect x="35" y="95" width="365" height="88" rx="28" fill="#252837"/>
<rect x="135" y="70" width="82" height="50" rx="12" fill="#cfe5ef" opacity=".86"/>
<rect x="228" y="70" width="82" height="50" rx="12" fill="#cfe5ef" opacity=".86"/>
<circle cx="115" cy="183" r="38" fill="#171923"/><circle cx="115" cy="183" r="18" fill="#bfc2d6"/>
<circle cx="320" cy="183" r="38" fill="#171923"/><circle cx="320" cy="183" r="18" fill="#bfc2d6"/>
<rect x="125" y="22" width="170" height="40" rx="10" fill="#6b4a34"/>
<path d="M125 22 L165 -25 H300 L295 22 Z" fill="#8a5a3d"/>
<path d="M165 -25 L205 22 L125 22 Z" fill="#d9b08a"/>
<rect x="175" y="-18" width="92" height="9" rx="4" fill="#3d2d27"/>
<rect x="92" y="63" width="225" height="8" rx="4" fill="#202231"/>
</g>
<g fill="#273f35">
<path d="M1450 288 l34 -88 l34 88 z"/><rect x="1481" y="287" width="8" height="42"/>
<path d="M1580 292 l40 -108 l40 108 z"/><rect x="1616" y="291" width="9" height="44"/>
<path d="M235 288 l30 -78 l30 78 z"/><rect x="262" y="287" width="7" height="42"/>
</g>
<g fill="#9c72e9" opacity=".65">
<circle cx="80" cy="370" r="6"/><circle cx="120" cy="360" r="5"/><circle cx="1660" cy="350" r="6"/><circle cx="1710" cy="365" r="5"/>
</g>
</svg>